<svg width="864" height="864" viewBox="0 0 864 864" fill="none"
	xmlns="http://www.w3.org/2000/svg">
	<g filter="url(#filter0_dii_283:38)">
		<path fill-rule="evenodd" clip-rule="evenodd" d="M844 262.627C844 252.845 844.004 243.062 843.944 233.279C843.895 225.038 843.8 216.799 843.576 208.562C843.092 190.609 842.033 172.502 838.84 154.749C835.602 136.741 830.314 119.98 821.981 103.617C813.789 87.5337 803.088 72.8168 790.32 60.0578C777.555 47.2989 762.834 36.6049 746.746 28.4179C730.366 20.0829 713.587 14.797 695.558 11.56C677.803 8.37199 659.691 7.315 641.738 6.83C633.495 6.607 625.253 6.513 617.008 6.462C607.22 6.402 597.432 6.407 587.644 6.407L473.997 6H388.997L277.361 6.407C267.554 6.407 257.747 6.402 247.94 6.462C239.678 6.513 231.42 6.607 223.161 6.83C205.167 7.315 187.014 8.37299 169.217 11.565C151.164 14.801 134.36 20.0849 117.958 28.4139C101.835 36.6019 87.0825 47.2969 74.2906 60.0578C61.5007 72.8158 50.7798 87.5297 42.5728 103.61C34.2169 119.981 28.9189 136.752 25.673 154.77C22.477 172.516 21.418 190.617 20.931 208.562C20.709 216.8 20.613 225.039 20.563 233.279C20.503 243.063 20 255.216 20 264.999L20.003 375.089L20 460.998L20.508 573.427C20.508 583.223 20.504 593.019 20.563 602.815C20.613 611.067 20.709 619.317 20.932 627.566C21.418 645.542 22.479 663.675 25.678 681.452C28.9229 699.484 34.2199 716.269 42.5688 732.653C50.7768 748.759 61.4997 763.495 74.2906 776.272C87.0815 789.049 101.83 799.757 117.95 807.956C134.362 816.302 151.174 821.595 169.238 824.836C187.027 828.029 205.174 829.088 223.161 829.573C231.42 829.796 239.679 829.891 247.941 829.941C257.748 830.001 267.554 829.997 277.361 829.997L390.006 830H475.217L587.644 829.996C597.432 829.996 607.22 830.001 617.008 829.941C625.253 829.891 633.495 829.796 641.738 829.573C659.698 829.087 677.816 828.027 695.579 824.832C713.597 821.591 730.368 816.3 746.739 807.959C762.831 799.761 777.554 789.051 790.32 776.272C803.086 763.497 813.786 748.763 821.978 732.66C830.316 716.268 835.604 699.475 838.844 681.431C842.034 663.661 843.092 645.535 843.577 627.566C843.8 619.316 843.895 611.066 843.944 602.815C844.005 593.019 844 583.223 844 573.427C844 573.427 843.994 462.983 843.994 460.998V374.999C843.994 373.533 844 262.627 844 262.627" fill="url(#paint0_linear_283:38)"/>
		<path fill-rule="evenodd" clip-rule="evenodd" d="M844 262.627C844 252.845 844.004 243.062 843.944 233.279C843.895 225.038 843.8 216.799 843.576 208.562C843.092 190.609 842.033 172.502 838.84 154.749C835.602 136.741 830.314 119.98 821.981 103.617C813.789 87.5337 803.088 72.8168 790.32 60.0578C777.555 47.2989 762.834 36.6049 746.746 28.4179C730.366 20.0829 713.587 14.797 695.558 11.56C677.803 8.37199 659.691 7.315 641.738 6.83C633.495 6.607 625.253 6.513 617.008 6.462C607.22 6.402 597.432 6.407 587.644 6.407L473.997 6H388.997L277.361 6.407C267.554 6.407 257.747 6.402 247.94 6.462C239.678 6.513 231.42 6.607 223.161 6.83C205.167 7.315 187.014 8.37299 169.217 11.565C151.164 14.801 134.36 20.0849 117.958 28.4139C101.835 36.6019 87.0825 47.2969 74.2906 60.0578C61.5007 72.8158 50.7798 87.5297 42.5728 103.61C34.2169 119.981 28.9189 136.752 25.673 154.77C22.477 172.516 21.418 190.617 20.931 208.562C20.709 216.8 20.613 225.039 20.563 233.279C20.503 243.063 20 255.216 20 264.999L20.003 375.089L20 460.998L20.508 573.427C20.508 583.223 20.504 593.019 20.563 602.815C20.613 611.067 20.709 619.317 20.932 627.566C21.418 645.542 22.479 663.675 25.678 681.452C28.9229 699.484 34.2199 716.269 42.5688 732.653C50.7768 748.759 61.4997 763.495 74.2906 776.272C87.0815 789.049 101.83 799.757 117.95 807.956C134.362 816.302 151.174 821.595 169.238 824.836C187.027 828.029 205.174 829.088 223.161 829.573C231.42 829.796 239.679 829.891 247.941 829.941C257.748 830.001 267.554 829.997 277.361 829.997L390.006 830H475.217L587.644 829.996C597.432 829.996 607.22 830.001 617.008 829.941C625.253 829.891 633.495 829.796 641.738 829.573C659.698 829.087 677.816 828.027 695.579 824.832C713.597 821.591 730.368 816.3 746.739 807.959C762.831 799.761 777.554 789.051 790.32 776.272C803.086 763.497 813.786 748.763 821.978 732.66C830.316 716.268 835.604 699.475 838.844 681.431C842.034 663.661 843.092 645.535 843.577 627.566C843.8 619.316 843.895 611.066 843.944 602.815C844.005 593.019 844 583.223 844 573.427C844 573.427 843.994 462.983 843.994 460.998V374.999C843.994 373.533 844 262.627 844 262.627" fill="url(#paint1_angular_283:38)"/>
	</g>
	<g filter="url(#filter1_ddii_283:38)">
		<rect x="75" y="60" width="716" height="716" rx="130" fill="url(#paint2_linear_283:38)"/>
	</g>
	<path d="M434 566.167C516.382 566.167 583.167 499.382 583.167 417C583.167 334.618 516.382 267.833 434 267.833C351.618 267.833 284.833 334.618 284.833 417C284.833 499.382 351.618 566.167 434 566.167Z" stroke="#CC7932" stroke-width="25" stroke-linecap="round" stroke-linejoin="round"/>
	<path d="M434 88.8333V148.5" stroke="#CC7932" stroke-width="25" stroke-linecap="round" stroke-linejoin="round"/>
	<path d="M434 685.5V745.167" stroke="#CC7932" stroke-width="25" stroke-linecap="round" stroke-linejoin="round"/>
	<path d="M201.897 184.897L244.26 227.26" stroke="#CC7932" stroke-width="25" stroke-linecap="round" stroke-linejoin="round"/>
	<path d="M623.74 606.74L666.103 649.103" stroke="#CC7932" stroke-width="25" stroke-linecap="round" stroke-linejoin="round"/>
	<path d="M105.833 417H165.5" stroke="#CC7932" stroke-width="25" stroke-linecap="round" stroke-linejoin="round"/>
	<path d="M702.5 417H762.167" stroke="#CC7932" stroke-width="25" stroke-linecap="round" stroke-linejoin="round"/>
	<path d="M201.897 649.103L244.26 606.74" stroke="#CC7932" stroke-width="25" stroke-linecap="round" stroke-linejoin="round"/>
	<path d="M623.74 227.26L666.103 184.897" stroke="#CC7932" stroke-width="25" stroke-linecap="round" stroke-linejoin="round"/>
	<defs>
		<filter id="filter0_dii_283:38" x="0" y="0" width="864" height="864" filterUnits="userSpaceOnUse" color-interpolation-filters="sRGB">
			<feFlood flood-opacity="0" result="BackgroundImageFix"/>
			<feColorMatrix in="SourceAlpha" type="matrix" values="0 0 0 0 0 0 0 0 0 0 0 0 0 0 0 0 0 0 127 0" result="hardAlpha"/>
			<feOffset dy="14"/>
			<feGaussianBlur stdDeviation="10"/>
			<feColorMatrix type="matrix" values="0 0 0 0 0 0 0 0 0 0 0 0 0 0 0 0 0 0 0.25 0"/>
			<feBlend mode="normal" in2="BackgroundImageFix" result="effect1_dropShadow_283:38"/>
			<feBlend mode="normal" in="SourceGraphic" in2="effect1_dropShadow_283:38" result="shape"/>
			<feColorMatrix in="SourceAlpha" type="matrix" values="0 0 0 0 0 0 0 0 0 0 0 0 0 0 0 0 0 0 127 0" result="hardAlpha"/>
			<feOffset dy="4"/>
			<feGaussianBlur stdDeviation="1"/>
			<feComposite in2="hardAlpha" operator="arithmetic" k2="-1" k3="1"/>
			<feColorMatrix type="matrix" values="0 0 0 0 1 0 0 0 0 1 0 0 0 0 1 0 0 0 0.44 0"/>
			<feBlend mode="normal" in2="shape" result="effect2_innerShadow_283:38"/>
			<feColorMatrix in="SourceAlpha" type="matrix" values="0 0 0 0 0 0 0 0 0 0 0 0 0 0 0 0 0 0 127 0" result="hardAlpha"/>
			<feOffset dy="-3"/>
			<feGaussianBlur stdDeviation="2"/>
			<feComposite in2="hardAlpha" operator="arithmetic" k2="-1" k3="1"/>
			<feColorMatrix type="matrix" values="0 0 0 0 0 0 0 0 0 0 0 0 0 0 0 0 0 0 0.25 0"/>
			<feBlend mode="normal" in2="effect2_innerShadow_283:38" result="effect3_innerShadow_283:38"/>
		</filter>
		<filter id="filter1_ddii_283:38" x="72" y="55" width="722" height="727" filterUnits="userSpaceOnUse" color-interpolation-filters="sRGB">
			<feFlood flood-opacity="0" result="BackgroundImageFix"/>
			<feColorMatrix in="SourceAlpha" type="matrix" values="0 0 0 0 0 0 0 0 0 0 0 0 0 0 0 0 0 0 127 0" result="hardAlpha"/>
			<feOffset dy="4"/>
			<feGaussianBlur stdDeviation="1"/>
			<feColorMatrix type="matrix" values="0 0 0 0 1 0 0 0 0 1 0 0 0 0 1 0 0 0 0.37 0"/>
			<feBlend mode="normal" in2="BackgroundImageFix" result="effect1_dropShadow_283:38"/>
			<feColorMatrix in="SourceAlpha" type="matrix" values="0 0 0 0 0 0 0 0 0 0 0 0 0 0 0 0 0 0 127 0" result="hardAlpha"/>
			<feOffset dy="-2"/>
			<feGaussianBlur stdDeviation="1.5"/>
			<feColorMatrix type="matrix" values="0 0 0 0 0 0 0 0 0 0 0 0 0 0 0 0 0 0 0.59 0"/>
			<feBlend mode="normal" in2="effect1_dropShadow_283:38" result="effect2_dropShadow_283:38"/>
			<feBlend mode="normal" in="SourceGraphic" in2="effect2_dropShadow_283:38" result="shape"/>
			<feColorMatrix in="SourceAlpha" type="matrix" values="0 0 0 0 0 0 0 0 0 0 0 0 0 0 0 0 0 0 127 0" result="hardAlpha"/>
			<feOffset dy="5"/>
			<feGaussianBlur stdDeviation="10.5"/>
			<feComposite in2="hardAlpha" operator="arithmetic" k2="-1" k3="1"/>
			<feColorMatrix type="matrix" values="0 0 0 0 0 0 0 0 0 0 0 0 0 0 0 0 0 0 0.23 0"/>
			<feBlend mode="normal" in2="shape" result="effect3_innerShadow_283:38"/>
			<feColorMatrix in="SourceAlpha" type="matrix" values="0 0 0 0 0 0 0 0 0 0 0 0 0 0 0 0 0 0 127 0" result="hardAlpha"/>
			<feOffset dy="5"/>
			<feGaussianBlur stdDeviation="2"/>
			<feComposite in2="hardAlpha" operator="arithmetic" k2="-1" k3="1"/>
			<feColorMatrix type="matrix" values="0 0 0 0 0 0 0 0 0 0 0 0 0 0 0 0 0 0 0.07 0"/>
			<feBlend mode="normal" in2="effect3_innerShadow_283:38" result="effect4_innerShadow_283:38"/>
		</filter>
		<linearGradient id="paint0_linear_283:38" x1="432" y1="6" x2="432" y2="830" gradientUnits="userSpaceOnUse">
			<stop stop-color="#3A3D47"/>
			<stop offset="1" stop-color="#23242B"/>
		</linearGradient>
		<radialGradient id="paint1_angular_283:38" cx="0" cy="0" r="1" gradientUnits="userSpaceOnUse" gradientTransform="translate(427.651 426.698) rotate(39.1529) scale(398.766 393.79)">
			<stop offset="0.0032037" stop-color="#4FC9B0"/>
			<stop offset="0.218001" stop-color="#9874AA"/>
			<stop offset="0.400939" stop-color="#9874AA"/>
			<stop offset="0.580534" stop-color="#CC7932"/>
			<stop offset="0.77854" stop-color="#FBC76D"/>
		</radialGradient>
		<linearGradient id="paint2_linear_283:38" x1="433" y1="60" x2="433" y2="776" gradientUnits="userSpaceOnUse">
			<stop stop-color="#242424"/>
			<stop offset="1" stop-color="#23242B"/>
		</linearGradient>
	</defs>
</svg>
